<svg xmlns="http://www.w3.org/2000/svg" viewBox="0 0 416 512" width="416" height="512">
	<style>
		tspan { white-space:pre }
		.shp0 { fill: #ef7f00 } 
	</style>
	<path id="Layer" fill-rule="evenodd" class="shp0" d="M224 144C224 196.3 196.2 233.6 155.1 248.6L168 486.7C168.7 500.4 157.8 512 144 512L80 512C66.3 512 55.3 500.5 56 486.7L68.9 248.6C27.7 233.6 0 196.2 0 144C0 109.6 15.3 19.9 16.1 15.2C19.3 -5.1 61.4 -5.4 64 16.3L64 157.5C65.3 160.9 79.1 160.7 80 157.5C81.4 132.2 87.9 18.3 88 15.7C91.3 -5.1 132.7 -5.1 135.9 15.7C136.1 18.4 142.5 132.2 143.9 157.5C144.8 160.7 158.7 160.9 159.9 157.5L159.9 16.3C162.5 -5.3 204.7 -5.1 207.9 15.2C208.7 19.9 224 109.7 224 144ZM392 0C405.3 0 416 10.8 416 24L416 488C416 501.3 405.3 512 392 512L336 512C322 512 310.9 500 312.1 486L327.1 300.9C170.6 178.5 309.5 0 392 0Z" />
</svg>