<svg xmlns="http://www.w3.org/2000/svg" viewBox="0 0 576 512" width="576" height="512">
	<style>
		tspan { white-space:pre }
		.shp0 { fill: #ef7f00 } 
	</style>
	<path id="Layer" fill-rule="evenodd" class="shp0" d="M414 126C414 182.26 331.65 284.8 300.1 322.02C293.72 329.56 282.29 329.56 275.9 322.02C244.35 284.8 162 182.26 162 126C162 56.41 218.41 0 288 0C357.59 0 414 56.41 414 126ZM330 126C330 102.8 311.2 84 288 84C264.8 84 246 102.8 246 126C246 149.2 264.8 168 288 168C311.2 168 330 149.2 330 126ZM138.75 168.5C143.93 183.38 151.16 198.94 160 214.92L160 448L21.94 510.84C11.43 515.04 0 507.3 0 495.98L0 245.66C0 242.48 0.48 239.32 1.41 236.28C2.34 233.24 3.72 230.35 5.51 227.72C7.29 225.09 9.45 222.73 11.93 220.74C14.41 218.75 17.17 217.13 20.12 215.95L138.75 168.5ZM324.51 342.72C344.18 319.52 365.08 293.09 384 266L384 511.99L192 447.99L192 265.99C210.92 293.09 231.83 319.51 251.49 342.71C260.62 353.49 273.93 359.67 288 359.67C302.07 359.67 315.38 353.49 324.51 342.72ZM576 176.02L576 426.34C576 429.52 575.53 432.68 574.59 435.72C573.66 438.76 572.28 441.65 570.5 444.28C568.71 446.91 566.55 449.27 564.07 451.26C561.59 453.26 558.83 454.87 555.88 456.05L416 512L416 224L554.06 161.16C564.57 156.96 576 164.7 576 176.02Z" />
</svg>