<svg xmlns="http://www.w3.org/2000/svg" viewBox="0 0 448 512" width="448" height="512">
	<style>
		tspan { white-space:pre }
		.shp0 { fill: #ef7f00 } 
	</style>
	<path id="Layer" fill-rule="evenodd" class="shp0" d="M448 112L448 464C448 490.5 426.5 512 400 512L48 512C21.5 512 0 490.5 0 464L0 112C0 85.5 21.5 64 48 64L96 64L96 12C96 5.4 101.4 0 108 0L148 0C154.6 0 160 5.4 160 12L160 64L288 64L288 12C288 5.4 293.4 0 300 0L340 0C346.6 0 352 5.4 352 12L352 64L400 64C426.5 64 448 85.5 448 112ZM400 458L400 160L48 160L48 458C48 461.3 50.7 464 54 464L394 464C397.3 464 400 461.3 400 458ZM340 288L300 288C293.4 288 288 282.6 288 276L288 236C288 229.4 293.4 224 300 224L340 224C346.6 224 352 229.4 352 236L352 276C352 282.6 346.6 288 340 288ZM244 384L204 384C197.4 384 192 378.6 192 372L192 332C192 325.4 197.4 320 204 320L244 320C250.6 320 256 325.4 256 332L256 372C256 378.6 250.6 384 244 384ZM148 384L108 384C101.4 384 96 378.6 96 372L96 332C96 325.4 101.4 320 108 320L148 320C154.6 320 160 325.4 160 332L160 372C160 378.6 154.6 384 148 384ZM340 384L300 384C293.4 384 288 378.6 288 372L288 332C288 325.4 293.4 320 300 320L340 320C346.6 320 352 325.4 352 332L352 372C352 378.6 346.6 384 340 384ZM148 288L108 288C101.4 288 96 282.6 96 276L96 236C96 229.4 101.4 224 108 224L148 224C154.6 224 160 229.4 160 236L160 276C160 282.6 154.6 288 148 288ZM244 288L204 288C197.4 288 192 282.6 192 276L192 236C192 229.4 197.4 224 204 224L244 224C250.6 224 256 229.4 256 236L256 276C256 282.6 250.6 288 244 288Z" />
</svg>