<svg xmlns="http://www.w3.org/2000/svg" viewBox="0 0 829.97 239.52"><title>Asset 4</title><g id="Layer_2" data-name="Layer 2"><g id="Layer_3" data-name="Layer 3"><g id="quokka"><path d="M100.47,65.83l15,92s-4,8-25,4-33-29-33-29c-4.5-7.16-8.43-16.81-12-28-8,1-8-1-15-3s-18-29-18-29c-13.2-4-11-7-11-9-2.16-4.51,14-10,14-10s4-11,8-12,9-9,9-9,3-16,10-11,10,10,12,10c2.5-.4,20,6,23,9,11,4,10,21,10,21C89.47,61.83,100.47,65.83,100.47,65.83Z" fill="#ffce78"/><path d="M100.47,65.83s-11-4-13-4c0,0,1-17-10-21-3-3-20.5-9.4-23-9-2,0-5-5-12-10s-10,11-10,11-5,8-9,9-8,12-8,12-16.16,5.49-14,10c0,2-2.2,5,11,9,0,0,11,27,18,29s7,4,15,3c3.57,11.19,7.5,20.84,12,28,0,0,12,25,33,29s25-4,25-4Z" fill="none" stroke="#000" stroke-miterlimit="10"/><path d="M102.47,158.83a35.86,35.86,0,0,1-23-16s-6-15-4-18,18-6,18-6,2-2,1-4-11-6-17-6c0,0,3-8,5-8l7-4,5,10s0,4,7,2,1,50,1,50" fill="#fff"/><path d="M13.14,72.25c-3.72-1.06-14.35-4.87-9.9-10.8,2.43-3.24,7.07-3.22,10.32-4.91A8.78,8.78,0,0,0,17.12,53c2.23-3.64,3.21-7,6.53-10,4.49-4,9.25-5.25,10.45-11.69.84-4.49,1.13-10.7,7.78-8.12a18.42,18.42,0,0,1,9.95,9c.59,1.15,2.31.14,1.73-1a20,20,0,0,0-8.24-8.61c-2.55-1.4-6.57-3.4-9.44-1.9S32.81,26,32.41,28.75c-.73,5.1-2.42,7.28-6.55,10a28.94,28.94,0,0,0-4.78,3.91,21.5,21.5,0,0,0-3.9,5.28c-1.79,3.48-2.84,5.89-6.93,7.57C7,56.86,3.08,57.81,1,61-3.4,68,7.52,72.73,12.61,74.17a1,1,0,0,0,.53-1.92Z"/><path d="M57.21,97.52c-8.71,8.45-22.48,8.77-31-.18-6.44-6.75-7.55-16.93-12.46-24.68-.69-1.08-2.42-.08-1.73,1,6.21,9.8,7.1,22.74,17.89,29.16,9.44,5.62,21,3.59,28.73-3.9.93-.9-.49-2.31-1.41-1.41Z"/><path d="M52.34,32.58C62.06,35.77,72,35.9,79.83,43.49c8,7.79,10.2,21.6.17,28.81-1,.75,0,2.48,1,1.73,8.79-6.32,9.91-18,4.32-26.92A30.22,30.22,0,0,0,72.12,36c-6.18-2.84-12.87-3.21-19.25-5.3-1.23-.4-1.75,1.53-.53,1.93Z"/><path d="M9.52,63.4c-.45,1.88-.44,4.46,1.69,5.32S14,66.81,13.7,65.28a2.32,2.32,0,0,0-1.32-1.81c-.64-.29-1.72-.54-2.24.08a2.52,2.52,0,0,0-.08,2.21,4.74,4.74,0,0,0,1.72,2.34c.33.25.72-.1.75-.44a15.55,15.55,0,0,0-.07-3l-.94.25a2.11,2.11,0,0,1,.31,1.8.5.5,0,0,0,1,.27c.26-.88.05-2.91-1.26-2.9-1.5,0-.37,2,.1,2.54a.5.5,0,0,0,.83-.49,3.85,3.85,0,0,0-1.22-1.87.51.51,0,0,0-.84.22c-.25.76-.16,2.27,1,2.11s.63-1.49-.12-1.84a.52.52,0,0,0-.69.18,1.86,1.86,0,0,0,.56,2.48c.45.35,1-.4.61-.78a.86.86,0,0,0-1.45.89.51.51,0,0,0,.84.22.69.69,0,0,0,.19-.78l-.83.49a1,1,0,0,0,1.17.29c.59-.24.34-1.21-.26-1l-.21,0a.5.5,0,0,0-.83.49l0,.16.13-.48-.11.12.83.22-.22.08.61-.78a.82.82,0,0,1-.2-1.11l-.69.18c.25.21.38.14.37-.24l.21-.63-.83.22a3,3,0,0,1,1,1.43l.84-.49c-.23-.23-.68-.75-.52-1.13l-.35.35c.53-.19.42,1.39.36,1.58l1,.27a3.11,3.11,0,0,0-.4-2.57c-.25-.37-1-.28-.93.25a15.55,15.55,0,0,1,.07,3l.75-.43c-.65-.49-1.61-1.67-1.41-2.57.13-.62.72-.46,1.17-.22a1.53,1.53,0,0,1,.7,1.51,3.52,3.52,0,0,1-.31,1.51,1.08,1.08,0,0,1-1.3.06,2.25,2.25,0,0,1-.45-.52,4.3,4.3,0,0,1-.19-3.34.5.5,0,0,0-1-.26Z" fill="#fff"/><path d="M9.4,63a4.21,4.21,0,0,0,3.4,6.39c.48,0,.48-.71,0-.75a3.44,3.44,0,0,1-2.75-5.26A.38.38,0,0,0,9.4,63Z"/><g id="left_ear" data-name="left ear"><path d="M6.35,67.26a4.52,4.52,0,0,1,7.2-2.85c.52.37,1-.5.5-.87A5.51,5.51,0,0,0,5.38,67c-.12.63.84.9,1,.26Z"/></g><path d="M38.82,30.36c.68,1.56,2.16,2.24,3.66,2.84l.2-1.47a1.81,1.81,0,0,1-1.38-.52l-1.06,1.06a5.74,5.74,0,0,0,4.49,1.54c1.54-.28,1.8-1.65,1.17-2.9-1.33-2.66-5.08-4-7.17-1.36a.76.76,0,0,0,.15,1.18c1.33.65,2.68,1.28,4.06,1.83.68.27,1.62.51,2-.39s-.52-1.58-1.06-2a4.5,4.5,0,0,0-3.06-.94c-.67,0-1.12,1.08-.38,1.4l2.15.92c.88.38,1.64-.91.76-1.29l-2.15-.92-.38,1.39a3.1,3.1,0,0,1,1.64.3c.29.14,1,.58,1,.94l.37-.64a11.21,11.21,0,0,1-2-.89c-.72-.32-1.43-.66-2.14-1l.15,1.18a2.63,2.63,0,0,1,4-.08c.56.55,1.37,1.66,0,1.79a4.07,4.07,0,0,1-2.49-1.11c-.73-.62-1.79.4-1.06,1.06a3.45,3.45,0,0,0,2.44,1,.76.76,0,0,0,.2-1.48,4.38,4.38,0,0,1-2.76-2.14c-.38-.89-1.68-.12-1.3.75Z" fill="#fff"/><path d="M38.78,29.6A4.37,4.37,0,0,1,46,33.36c0,.48.71.47.75,0a5.12,5.12,0,0,0-8.51-4.29c-.36.31.17.84.53.53Z"/><g id="right_ear" data-name="right ear"><path d="M39.54,24.58a5.51,5.51,0,0,0,1.61,9.19c.58.24,1.09-.62.5-.87a4.52,4.52,0,0,1-1.4-7.62c.47-.44-.24-1.15-.71-.7Z"/></g><path d="M44.91,104.88c6.61,29.19,28.91,60.58,61.54,60.2a1,1,0,0,0,0-2c-31.7.37-53.21-30.45-59.61-58.73-.29-1.25-2.21-.72-1.93.53Z"/><path d="M87.59,63.29A33.66,33.66,0,0,1,105.08,70c1,.77,2-1,1-1.73a35.51,35.51,0,0,0-18.5-6.93c-1.28-.1-1.28,1.9,0,2Z"/><path d="M73.56,107.66c6.2,4.94,17.69,1.61,21.36,9.5l.59-1.47-1.72.71a1,1,0,0,0-.24,1.83c-2.18-1.56-7.65,1.34-9.61,2.34-6.24,3.19-11.67,4.34-17.61-.46-1-.8-2.41.6-1.41,1.41,6.87,5.56,12.67,4.48,20,.78a21.57,21.57,0,0,1,7.72-2.08c.74-.1,1.63.06,2.25-.53a2,2,0,0,0-.36-3.19l-.24,1.83,1.72-.71a1,1,0,0,0,.6-1.47c-4.07-8.75-15.18-4.74-21.67-9.9-1-.8-2.42.61-1.41,1.41Z"/><path d="M86.72,94.75a29.13,29.13,0,0,1,4.85,8.4c.61,1.61,1,3.46,2,4.91a6.11,6.11,0,0,0,5,2.86,1,1,0,0,0,1-.73l.29-1.08-1.23.7a2,2,0,0,0,2.67-1c.4-.61.19-1.3.22-2,.14-2.82-.54-5,.06-7.93,1.55-7.51,1.15-13-2.86-19.83a1,1,0,0,0-1.72,1c3.18,5.43,4.42,10.49,3.11,16.68a28.34,28.34,0,0,0-1,5.15c0,.44.43,6,0,5.89a1,1,0,0,0-1.23.7A2.9,2.9,0,0,1,95,106a11.33,11.33,0,0,1-1.47-3.41c-.37-.88-.67-1.76-1.07-2.62a31.22,31.22,0,0,0-4.29-6.67c-.81-1-2.22.43-1.42,1.42Z"/><g id="eyeball"><path d="M46.21,51.49c-1,1.12-1.81,1.27-2.93.3a2.39,2.39,0,0,1-.53-3.5,3,3,0,0,1,4-.56C47.88,48.69,47.17,50.37,46.21,51.49Z" stroke="#000" stroke-miterlimit="10"/><ellipse cx="44.21" cy="48.73" rx="1.24" ry="0.75" transform="translate(-9.08 10.15) rotate(-11.88)" fill="#fff"/></g><g id="eyeball-2" data-name="eyeball"><path d="M29,69.06c.68-1.31.49-2.15-.82-2.83a2.38,2.38,0,0,0-3.44.82,3,3,0,0,0,1,3.92C27,71.66,28.27,70.37,29,69.06Z" stroke="#000" stroke-miterlimit="10"/><ellipse cx="26.66" cy="67.44" rx="1.45" ry="0.89" transform="matrix(0.99, -0.15, 0.15, 0.99, -9.98, 4.86)" fill="#fff"/></g><path d="M37.29,65c-.07,3.51,2.26,8.37,6.47,6.07,2.82-1.53,4.36-5.92.77-7.51A8.85,8.85,0,0,0,39,63.14c-1.88.48-1.85,2-1.3,3.61s1.64,3.83,3.37,4.1,3.12-2,4-3.22l-2.74-1.16-.26,1.15c-.41,1.88,2.48,2.69,2.9.8l.25-1.15a1.51,1.51,0,0,0-2.74-1.16,6.5,6.5,0,0,1-1.75,2L41.88,68c-.32-.07-.76-.94-.94-1.27s-.27-.8-.46-1.12l-.11-.38-.78.89a14.8,14.8,0,0,1,2.18-.15c.42,0,1.63.13,1.88.55.47.75-1.32,2.24-2,2.17-1.24-.14-1.38-2.73-1.36-3.64,0-1.93-3-1.93-3,0Z"/><path d="M42.62,67a4.84,4.84,0,0,1-1.32,1.42l1.81,2.36a10,10,0,0,0,2.57-3.91,1.51,1.51,0,0,0-2.51-1.46l-.63.69,2.35,1.82a4.88,4.88,0,0,0,.54-1.57,1.58,1.58,0,0,0-.69-1.7,1.51,1.51,0,0,0-1.81.24L41,67l2.36,1.82a31,31,0,0,1,1.51-2.92,1.5,1.5,0,0,0-2.59-1.52,19.55,19.55,0,0,1-1.54,2.26l2.35,1.82,1.13-2.22a1.5,1.5,0,0,0-2.59-1.51l-1.81,2.43,2.59,1.51c.45-1,.94-1.89,1.48-2.8a1.51,1.51,0,0,0-2.36-1.82,27,27,0,0,0-2,2.24L42,67,42,66.76v.8a14.4,14.4,0,0,1,.93-1.73A1.51,1.51,0,0,0,40.55,64l-1.61,1.46,2.36,1.82.81-1.68a1.52,1.52,0,0,0-2-2.06,8.8,8.8,0,0,0-1.54,1.1l2.57,1.06,0,0a1.52,1.52,0,0,0-.39-1.93,1.48,1.48,0,0,0-2,.11l-.25.32a1.55,1.55,0,0,0,0,2.12,1.51,1.51,0,0,0,2.12,0l.25-.32-2.35-1.81a3.48,3.48,0,0,0-.37,1.48,1.52,1.52,0,0,0,2.56,1.06,5.34,5.34,0,0,1,.92-.63l-2-2-.81,1.68a1.51,1.51,0,0,0,2.36,1.82l1.6-1.45-2.36-1.82c-.54,1-1.54,2.23-1.18,3.43a1.52,1.52,0,0,0,2.51.66,27,27,0,0,1,2-2.24l-2.35-1.82c-.54.91-1,1.85-1.48,2.81a1.5,1.5,0,0,0,2.59,1.51l1.81-2.43-2.59-1.51-1.13,2.21c-.72,1.43,1.23,3.22,2.36,1.82a25.79,25.79,0,0,0,2-2.86L42.3,64.38c-.54,1-1.07,1.92-1.51,2.92a1.52,1.52,0,0,0,.38,1.94,1.49,1.49,0,0,0,2-.12L45.05,67l-2.51-1.46a2.57,2.57,0,0,1-.24.86c-.74,1.45,1.15,3.13,2.36,1.82l.63-.7L42.79,66A6.71,6.71,0,0,1,41,68.61C39.87,69.8,41.36,72,42.81,71a8.42,8.42,0,0,0,2.4-2.5c1-1.64-1.57-3.15-2.59-1.51Z"/><path d="M43.6,69.59C49.18,73,58.05,67.78,56.72,61c-.19-1-1.63-.55-1.45.4,1.1,5.55-6.61,9.49-10.92,6.88-.82-.51-1.58.79-.75,1.29Z"/><path d="M45.33,70.58a6.1,6.1,0,0,1-7.13,7c-1-.16-1.35,1.28-.4,1.45a7.63,7.63,0,0,0,9-8.86c-.15-1-1.6-.55-1.45.4Z"/><path d="M48.56,77.51c3.52.53,7.07-1.83,6.45-5.69-.15-.95-1.59-.55-1.44.4.42,2.65-2.29,4.19-4.61,3.85-1-.14-1.35,1.3-.4,1.44Z"/><path d="M78.54,108.92a14.82,14.82,0,0,1,11.11-11.5c.93-.22.54-1.67-.4-1.44a16.27,16.27,0,0,0-12.16,12.55c-.19.94,1.26,1.34,1.45.39Z"/><path d="M74.34,125.28a35.28,35.28,0,0,0,34,34.94c1,.05,1-1.45,0-1.5a33.77,33.77,0,0,1-32.51-33.44.75.75,0,0,0-1.5,0Z"/><path d="M41.31,66.08a1.5,1.5,0,0,1,.54-.22,1.22,1.22,0,0,1,.27,0c.18,0,.16,0,0-.19v-.4l.46-.38-.18,0a1.34,1.34,0,0,0-.45-.09,5.83,5.83,0,0,0-.83-.08l.2,1.47a4.18,4.18,0,0,1,1.32-.08c1,.09.95-1.41,0-1.5a5.23,5.23,0,0,0-1.72.14.75.75,0,0,0,.2,1.47c.54,0,1.16.32,1.69.21a1,1,0,0,0,.74-1.22c-.36-1.2-2.17-.86-3-.38s-.07,1.8.76,1.29Z" fill="#fff"/><path d="M42,66h.37a.75.75,0,0,0,0-1.5H42A.75.75,0,0,0,42,66Z" fill="#fff"/></g><text transform="translate(85.74 179.7)" font-size="209.03" fill="#fff" stroke="#000" stroke-miterlimit="10" stroke-width="3" font-family="Nunito-Black, Nunito Black" font-weight="800">Hap<tspan x="408.24" y="0" letter-spacing="-0.01em">p</tspan><tspan x="536.59" y="0" letter-spacing="0em">yr</tspan></text></g></g></svg>