<svg xmlns="http://www.w3.org/2000/svg" viewBox="0 0 115.99 144.96"><title>Asset 6</title><g id="Layer_2" data-name="Layer 2"><g id="Layer_3" data-name="Layer 3"><g id="quokka"><path d="M100.47,45.71l15,92s-4,8-25,4-33-29-33-29c-4.5-7.16-8.43-16.81-12-28-8,1-8-1-15-3s-18-29-18-29c-13.2-4-11-7-11-9-2.16-4.51,14-10,14-10s4-11,8-12,9-9,9-9,3-16,10-11,10,10,12,10c2.5-.4,20,6,23,9,11,4,10,21,10,21C89.47,41.71,100.47,45.71,100.47,45.71Z" fill="#ffce78"/><path d="M100.47,45.71s-11-4-13-4c0,0,1-17-10-21-3-3-20.5-9.4-23-9-2,0-5-5-12-10s-10,11-10,11-5,8-9,9-8,12-8,12-16.16,5.49-14,10c0,2-2.2,5,11,9,0,0,11,27,18,29s7,4,15,3c3.57,11.19,7.5,20.84,12,28,0,0,12,25,33,29s25-4,25-4Z" fill="none" stroke="#000" stroke-miterlimit="10"/><path d="M102.47,138.71a35.86,35.86,0,0,1-23-16s-6-15-4-18,18-6,18-6,2-2,1-4-11-6-17-6c0,0,3-8,5-8l7-4,5,10s0,4,7,2,1,50,1,50" fill="#fff"/><path d="M13.14,52.12c-3.72-1.06-14.35-4.86-9.9-10.8,2.43-3.23,7.07-3.22,10.32-4.91a8.66,8.66,0,0,0,3.56-3.56c2.23-3.63,3.21-7,6.53-10,4.49-4,9.25-5.25,10.45-11.69C34.94,6.68,35.23.47,41.88,3a18.4,18.4,0,0,1,9.95,9c.59,1.14,2.31.13,1.73-1a20,20,0,0,0-8.24-8.61C42.77,1,38.75-1,35.88.53s-3.07,5.32-3.47,8.1c-.73,5.1-2.42,7.28-6.55,10a29,29,0,0,0-4.78,3.92,21.5,21.5,0,0,0-3.9,5.28c-1.79,3.48-2.84,5.88-6.93,7.57C7,36.73,3.08,37.69,1,40.92c-4.44,7,6.48,11.68,11.57,13.13a1,1,0,0,0,.53-1.93Z"/><path d="M57.21,77.39c-8.71,8.46-22.48,8.78-31-.17-6.44-6.75-7.55-16.94-12.46-24.68-.69-1.08-2.42-.08-1.73,1,6.21,9.79,7.1,22.74,17.89,29.16,9.44,5.61,21,3.59,28.73-3.9.93-.9-.49-2.31-1.41-1.42Z"/><path d="M52.34,12.45c9.72,3.2,19.65,3.32,27.49,10.92,8,7.79,10.2,21.6.17,28.81-1,.74,0,2.48,1,1.73,8.79-6.32,9.91-18,4.32-26.93A30.26,30.26,0,0,0,72.12,15.83c-6.18-2.84-12.87-3.21-19.25-5.3-1.23-.41-1.75,1.52-.53,1.92Z"/><path d="M9.52,43.27c-.45,1.88-.44,4.46,1.69,5.33S14,46.69,13.7,45.15a2.32,2.32,0,0,0-1.32-1.8c-.64-.29-1.72-.54-2.24.08a2.52,2.52,0,0,0-.08,2.21A4.67,4.67,0,0,0,11.78,48c.33.25.72-.1.75-.43a15.55,15.55,0,0,0-.07-3l-.94.25a2.11,2.11,0,0,1,.31,1.8.5.5,0,0,0,1,.26c.26-.88.05-2.91-1.26-2.9-1.5,0-.37,2,.1,2.55a.5.5,0,0,0,.83-.49,3.85,3.85,0,0,0-1.22-1.87.51.51,0,0,0-.84.22c-.25.76-.16,2.27,1,2.1s.63-1.48-.12-1.83a.52.52,0,0,0-.69.18,1.86,1.86,0,0,0,.56,2.48c.45.34,1-.41.61-.79a.86.86,0,0,0-1.45.9.51.51,0,0,0,.84.22.7.7,0,0,0,.19-.78l-.83.48a1,1,0,0,0,1.17.29c.59-.23.34-1.2-.26-1l-.21,0a.5.5,0,0,0-.83.48l0,.17.13-.49-.11.13.83.22-.22.08.61-.78a.82.82,0,0,1-.2-1.11l-.69.17c.25.22.38.14.37-.23l.21-.63-.83.22a3,3,0,0,1,1,1.43l.84-.49c-.23-.24-.68-.76-.52-1.13l-.35.34c.53-.18.42,1.39.36,1.59l1,.26a3.09,3.09,0,0,0-.4-2.56c-.25-.38-1-.28-.93.25a15.55,15.55,0,0,1,.07,3l.75-.43c-.65-.5-1.61-1.67-1.41-2.58.13-.62.72-.46,1.17-.21a1.53,1.53,0,0,1,.7,1.51,3.51,3.51,0,0,1-.31,1.5,1.08,1.08,0,0,1-1.3.07,2.48,2.48,0,0,1-.45-.52,4.3,4.3,0,0,1-.19-3.34.5.5,0,0,0-1-.27Z" fill="#fff"/><path d="M9.4,42.92a4.21,4.21,0,0,0,3.4,6.39c.48,0,.48-.72,0-.75a3.44,3.44,0,0,1-2.75-5.26.38.38,0,0,0-.65-.38Z"/><g id="left_ear" data-name="left ear"><path d="M6.35,47.14a4.52,4.52,0,0,1,7.2-2.86c.52.37,1-.49.5-.86a5.51,5.51,0,0,0-8.67,3.45c-.12.63.84.9,1,.27Z"/></g><path d="M38.82,10.24c.68,1.56,2.16,2.24,3.66,2.84l.2-1.48a1.81,1.81,0,0,1-1.38-.51l-1.06,1.06a5.78,5.78,0,0,0,4.49,1.54c1.54-.28,1.8-1.65,1.17-2.9-1.33-2.67-5.08-4-7.17-1.36a.76.76,0,0,0,.15,1.18c1.33.65,2.68,1.28,4.06,1.83.68.27,1.62.51,2-.39s-.52-1.58-1.06-2a4.49,4.49,0,0,0-3.06-.93c-.67,0-1.12,1.08-.38,1.4l2.15.92c.88.38,1.64-.91.76-1.29l-2.15-.93-.38,1.4a3.2,3.2,0,0,1,1.64.29c.29.15,1,.59,1,.95l.37-.65a11.86,11.86,0,0,1-2-.88c-.72-.33-1.43-.66-2.14-1l.15,1.18a2.63,2.63,0,0,1,4-.08c.56.55,1.37,1.65,0,1.78a4.06,4.06,0,0,1-2.49-1.1c-.73-.62-1.79.4-1.06,1.06a3.4,3.4,0,0,0,2.44.95.75.75,0,0,0,.2-1.47,4.36,4.36,0,0,1-2.76-2.15c-.38-.88-1.68-.12-1.3.76Z" fill="#fff"/><path d="M38.78,9.48A4.37,4.37,0,0,1,46,13.23c0,.48.71.48.75,0A5.11,5.11,0,0,0,38.25,9c-.36.31.17.84.53.53Z"/><g id="right_ear" data-name="right ear"><path d="M39.54,4.45a5.51,5.51,0,0,0,1.61,9.19c.58.25,1.09-.61.5-.86a4.52,4.52,0,0,1-1.4-7.62c.47-.44-.24-1.15-.71-.71Z"/></g><path d="M44.91,84.76C51.52,114,73.82,145.34,106.45,145a1,1,0,0,0,0-2c-31.7.37-53.21-30.45-59.61-58.73-.29-1.26-2.21-.73-1.93.53Z"/><path d="M87.59,43.17a33.58,33.58,0,0,1,17.49,6.66c1,.76,2-1,1-1.73a35.51,35.51,0,0,0-18.5-6.93c-1.28-.11-1.28,1.89,0,2Z"/><path d="M73.56,87.54c6.2,4.94,17.69,1.61,21.36,9.5l.59-1.47-1.72.71a1,1,0,0,0-.24,1.82c-2.18-1.55-7.65,1.34-9.61,2.35-6.24,3.19-11.67,4.33-17.61-.47-1-.8-2.41.61-1.41,1.42,6.87,5.56,12.67,4.47,20,.77a21.56,21.56,0,0,1,7.72-2.07c.74-.1,1.63.05,2.25-.54a1.94,1.94,0,0,0-.36-3.18l-.24,1.82L96,97.5a1,1,0,0,0,.6-1.47c-4.07-8.75-15.18-4.74-21.67-9.9-1-.8-2.42.61-1.41,1.41Z"/><path d="M86.72,74.62A29.18,29.18,0,0,1,91.57,83c.61,1.61,1,3.46,2,4.91a6.11,6.11,0,0,0,5,2.86,1,1,0,0,0,1-.73L99.82,89l-1.23.69a2,2,0,0,0,2.67-1c.4-.61.19-1.29.22-2,.14-2.82-.54-5,.06-7.92,1.55-7.51,1.15-13-2.86-19.83A1,1,0,0,0,97,60c3.18,5.43,4.42,10.48,3.11,16.67a28.5,28.5,0,0,0-1,5.15c0,.45.43,6,0,5.9a1,1,0,0,0-1.23.69A2.88,2.88,0,0,1,95,85.91a11.28,11.28,0,0,1-1.47-3.42c-.37-.87-.67-1.75-1.07-2.61a31,31,0,0,0-4.29-6.67c-.81-1-2.22.42-1.42,1.41Z"/><g id="eyeball"><path d="M46.21,31.37c-1,1.12-1.81,1.26-2.93.3a2.39,2.39,0,0,1-.53-3.5,3,3,0,0,1,4-.57C47.88,28.57,47.17,30.24,46.21,31.37Z" stroke="#000" stroke-miterlimit="10"/><ellipse cx="44.21" cy="28.61" rx="1.24" ry="0.75" transform="translate(-4.94 9.71) rotate(-11.88)" fill="#fff"/></g><g id="eyeball-2" data-name="eyeball"><path d="M29,48.94c.68-1.31.49-2.16-.82-2.84a2.39,2.39,0,0,0-3.44.83,3,3,0,0,0,1,3.92C27,51.53,28.27,50.25,29,48.94Z" stroke="#000" stroke-miterlimit="10"/><ellipse cx="26.66" cy="47.31" rx="1.45" ry="0.89" transform="matrix(0.99, -0.15, 0.15, 0.99, -6.91, 4.62)" fill="#fff"/></g><path d="M37.29,44.89c-.07,3.5,2.26,8.37,6.47,6.07,2.82-1.53,4.36-5.93.77-7.52A8.78,8.78,0,0,0,39,43c-1.88.48-1.85,2-1.3,3.6s1.64,3.84,3.37,4.11,3.12-2,4-3.23l-2.74-1.15-.26,1.15c-.41,1.88,2.48,2.68,2.9.79l.25-1.15A1.51,1.51,0,0,0,42.48,46a6.5,6.5,0,0,1-1.75,2l1.15-.15c-.32-.07-.76-.94-.94-1.28s-.27-.79-.46-1.11l-.11-.39-.78.9a16.14,16.14,0,0,1,2.18-.16c.42,0,1.63.14,1.88.56.47.75-1.32,2.24-2,2.16-1.24-.14-1.38-2.72-1.36-3.63,0-1.93-3-1.93-3,0Z"/><path d="M42.62,46.84a5,5,0,0,1-1.32,1.42l1.81,2.35a10,10,0,0,0,2.57-3.9,1.51,1.51,0,0,0-2.51-1.46l-.63.69,2.35,1.82a4.93,4.93,0,0,0,.54-1.58,1.57,1.57,0,0,0-.69-1.69,1.5,1.5,0,0,0-1.81.23L41,46.88l2.36,1.81c.44-1,1-2,1.51-2.92a1.5,1.5,0,0,0-2.59-1.51,21.44,21.44,0,0,1-1.54,2.26l2.35,1.81,1.13-2.21a1.5,1.5,0,0,0-2.59-1.52L39.84,47l2.59,1.51c.45-1,.94-1.89,1.48-2.81a1.51,1.51,0,0,0-2.36-1.82,28.68,28.68,0,0,0-2,2.24l2.51.67L42,46.64v.8a14.4,14.4,0,0,1,.93-1.73,1.5,1.5,0,0,0-2.35-1.82l-1.61,1.46,2.36,1.81.81-1.68a1.51,1.51,0,0,0-2-2,8.8,8.8,0,0,0-1.54,1.1l2.57,1.06,0,0a1.54,1.54,0,0,0-.39-1.94,1.49,1.49,0,0,0-2,.12l-.25.32a1.55,1.55,0,0,0,0,2.12,1.52,1.52,0,0,0,2.12,0l.25-.32L38.46,44.1a3.53,3.53,0,0,0-.37,1.49,1.52,1.52,0,0,0,2.56,1.06,5.34,5.34,0,0,1,.92-.63l-2-2.05-.81,1.68a1.51,1.51,0,0,0,2.36,1.82L42.67,46,40.31,44.2c-.54,1-1.54,2.23-1.18,3.42a1.51,1.51,0,0,0,2.51.67,27,27,0,0,1,2-2.24l-2.35-1.82c-.54.91-1,1.85-1.48,2.81a1.5,1.5,0,0,0,2.59,1.51l1.81-2.43L41.65,44.6l-1.13,2.22c-.72,1.42,1.23,3.22,2.36,1.82a25.91,25.91,0,0,0,2-2.87L42.3,44.26a31,31,0,0,0-1.51,2.92,1.51,1.51,0,0,0,.38,1.93,1.48,1.48,0,0,0,2-.11l1.91-2.15-2.51-1.46a2.63,2.63,0,0,1-.24.86c-.74,1.45,1.15,3.13,2.36,1.81l.63-.69-2.5-1.46A6.71,6.71,0,0,1,41,48.49c-1.12,1.19.37,3.37,1.82,2.36a8.54,8.54,0,0,0,2.4-2.5c1-1.64-1.57-3.15-2.59-1.51Z"/><path d="M43.6,49.47c5.58,3.39,14.45-1.82,13.12-8.57-.19-.95-1.63-.55-1.45.39,1.1,5.56-6.61,9.5-10.92,6.88-.82-.5-1.58.8-.75,1.3Z"/><path d="M45.33,50.46a6.1,6.1,0,0,1-7.13,7c-1-.16-1.35,1.28-.4,1.44a7.62,7.62,0,0,0,9-8.85c-.15-1-1.6-.55-1.45.4Z"/><path d="M48.56,57.39c3.52.52,7.07-1.84,6.45-5.7-.15-.95-1.59-.54-1.44.4.42,2.66-2.29,4.2-4.61,3.85-1-.14-1.35,1.31-.4,1.45Z"/><path d="M78.54,88.8A14.79,14.79,0,0,1,89.65,77.3c.93-.22.54-1.67-.4-1.45A16.29,16.29,0,0,0,77.09,88.4c-.19.94,1.26,1.35,1.45.4Z"/><path d="M74.34,105.16a35.3,35.3,0,0,0,34,34.94c1,0,1-1.46,0-1.5a33.77,33.77,0,0,1-32.51-33.44.75.75,0,0,0-1.5,0Z"/><path d="M41.31,46a1.34,1.34,0,0,1,.54-.22h.27c.18.05.16,0,0-.18v-.4l.46-.38-.18-.05a1.34,1.34,0,0,0-.45-.09,5.81,5.81,0,0,0-.83-.07l.2,1.47A3.91,3.91,0,0,1,42.59,46c1,.09.95-1.41,0-1.5a5.51,5.51,0,0,0-1.72.13.76.76,0,0,0,.2,1.48c.54,0,1.16.32,1.69.21a1,1,0,0,0,.74-1.22c-.36-1.2-2.17-.87-3-.39s-.07,1.81.76,1.3Z" fill="#fff"/><path d="M42,45.87h.37a.75.75,0,0,0,0-1.5H42a.75.75,0,0,0,0,1.5Z" fill="#fff"/></g></g></g></svg>